<svg xmlns="http://www.w3.org/2000/svg" width="17" height="12" fill="none" overflow="visible"><path d="M 11.106 0.117 C 11.048 0.048 10.959 0.004 10.863 0 L 10.862 0 C 10.766 -0.004 10.674 0.031 10.608 0.096 C 10.543 0.159 10.509 0.246 10.512 0.333 L 10.523 0.398 C 10.534 0.441 10.554 0.481 10.582 0.515 L 10.63 0.563 L 10.641 0.573 L 10.651 0.583 L 15.871 5.703 L 0.314 5.703 C 0.131 5.714 0 5.86 0 6.024 C 0 6.187 0.131 6.334 0.314 6.345 L 15.872 6.345 L 10.646 11.457 C 10.525 11.584 10.525 11.779 10.646 11.906 C 10.707 11.965 10.792 12 10.881 12 C 10.971 12 11.056 11.965 11.119 11.904 L 16.867 6.271 L 16.867 6.271 L 16.904 6.236 C 16.966 6.177 17 6.097 17 6.018 C 17 5.937 16.966 5.858 16.905 5.8 L 16.9 5.796 L 11.126 0.138 L 11.116 0.128 Z" fill="rgb(255,119,97)"></path></svg>