<svg xmlns="http://www.w3.org/2000/svg" width="43.479" height="49" fill="none" overflow="visible"><path d="M 14.319 11.2 C 14.319 11.2 26.95 11.2 27.621 11.2 C 28 11.2 28.818 11.307 29.134 11.38 C 30.414 11.673 31.517 12.1 32.461 12.686 C 33.735 13.488 34.751 14.712 35.459 16.116 C 35.866 16.963 36.196 18.393 36.232 18.92 C 36.302 19.514 36.359 20.778 36.156 21.683 C 36.013 22.348 35.836 22.935 35.564 23.478 C 34.713 25.295 33.153 26.672 31.734 27.354 C 31.254 27.612 30.7 27.839 30.173 28.022 C 31.211 29.517 36.707 37.359 36.707 37.359 L 30.576 37.359 L 25.127 29.106 L 19.217 29.106 L 19.217 37.359 L 14.319 37.359 L 14.319 29.106 L 11.2 29.106 L 11.2 24.504 L 14.319 24.504 Z M 19.217 15.789 L 19.217 24.504 C 19.217 24.504 22.948 24.504 24.814 24.504 C 26.067 24.517 27.377 24.57 28.347 24.279 C 29.42 23.959 30.197 23.397 30.739 22.544 C 31.123 21.997 31.547 20.878 31.422 19.797 C 31.25 18.043 30.432 16.982 29.06 16.292 C 27.871 15.695 26.508 15.802 24.873 15.789 C 22.988 15.789 19.217 15.789 19.217 15.789 Z M 24.5 0 C 32.515 0 39.01 3.064 43.479 9.014 L 42.301 9.8 C 38.066 4.678 31.665 1.414 24.5 1.414 C 11.75 1.414 1.414 11.75 1.414 24.5 C 1.414 37.25 11.75 47.586 24.5 47.586 C 31.665 47.586 38.066 44.322 42.301 39.2 L 43.479 39.945 C 39.238 45.247 32.515 49 24.5 49 C 10.969 49 0 38.031 0 24.5 C 0 10.969 10.969 0 24.5 0 Z" fill="rgb(163,190,149)"></path></svg>