<svg xmlns="http://www.w3.org/2000/svg" width="18" height="18" fill="none" overflow="visible"><path d="M 9 0 C 8.335 0 7.797 0.538 7.797 1.203 L 7.797 7.797 L 1.203 7.797 C 0.538 7.797 0 8.335 0 9 C 0 9.665 0.538 10.203 1.203 10.203 L 7.797 10.203 L 7.797 16.797 C 7.797 17.462 8.335 18 9 18 C 9.665 18 10.203 17.462 10.203 16.797 L 10.203 10.203 L 16.797 10.203 C 17.462 10.203 18 9.665 18 9 C 18 8.335 17.462 7.797 16.797 7.797 L 10.203 7.797 L 10.203 1.203 C 10.203 0.538 9.665 0 9 0 Z" fill="rgb(255,255,255)"></path></svg>